<svg width="641" height="250" viewBox="0 0 641 250" fill="none" xmlns="http://www.w3.org/2000/svg">
<path d="M350.011 50.4914L350.832 50.6652L351.591 50.3091L438.264 9.62649L458.683 31.4994L459.748 32.6401L461.24 32.1841L550.384 4.95169L516.072 44.1873L510.842 50.1675L518.554 48.2599L620.816 22.9647L581.438 57.5564L576.152 62.1999L583.183 61.9327L625.865 60.3109L549.255 89.4825L543.75 91.5789L549.082 94.0815L580.898 109.017L474.564 135.908L472.087 136.534L479.377 162.973L391.382 172.224L390.647 172.301L390.073 172.765L344.55 209.477L300.852 182.721L299.568 181.936L298.273 182.702L204.492 238.173L203.483 203.908L203.38 200.391L200.092 201.647L95.7433 241.503L146.029 198.93L143.797 194.599L29.2958 223.713L94.8804 187.785L93.5121 183.098L18.8131 188.077L112.634 156.161L120.751 153.401L112.423 151.367L63.6787 139.46L164.413 117.05L166.752 116.53L166.331 114.171L161.331 86.1372L256.782 76.4525L257.626 76.3666L258.244 75.784L296.984 39.259L350.011 50.4914Z" fill="white" stroke="black" stroke-width="5"/>
</svg>
