<svg xmlns="http://www.w3.org/2000/svg" width="174" height="162" fill="none" xmlns:v="https://vecta.io/nano"><path d="M59.758 41.425l2.153 1.263c4.187 2.401 10.17 5.553 17.366 8.559 2.043.853 3.96 1.012 5.705.475 1.725-.531 3.093-1.685 4.172-3.114 2.121-2.811 3.373-7.02 4.141-11.175.526-2.844.839-5.764 1.027-8.378 1.252 3.422 2.991 7.66 5.338 12.371.873 1.753 2.098 2.987 3.627 3.689 1.508.692 3.165.799 4.804.568 3.225-.456 6.737-2.276 9.876-4.343 2.236-1.472 4.366-3.13 6.187-4.654l-.548 1.503c-.809 2.353-1.496 5.006-1.675 7.593-.179 2.575.135 5.225 1.478 7.45 1.423 2.358 4.218 3.789 7.179 4.698 3.022.928 6.549 1.412 9.857 1.656 2.02.149 3.984.209 5.737.221-2.342 1.188-5.131 2.65-7.953 4.237-3.575 2.011-7.241 4.244-10.127 6.393-1.441 1.073-2.724 2.152-3.71 3.196-.956 1.011-1.774 2.132-2.061 3.299-.29 1.182-.068 2.49.342 3.732.42 1.272 1.097 2.648 1.915 4.051 1.638 2.808 3.947 5.895 6.267 8.738a142.42 142.42 0 0 0 2.859 3.386c-1.511-.796-3.148-1.622-4.852-2.415-3.631-1.692-7.613-3.271-11.305-4.135-3.623-.848-7.296-1.089-10.075.287-3.046 1.51-4.158 5.131-4.479 8.839-.333 3.84.122 8.435.846 12.791.635 3.82 1.489 7.522 2.247 10.477a95.77 95.77 0 0 0-3.124-3.186c-2.183-2.12-4.685-4.326-7.256-6.133-2.548-1.79-5.277-3.27-7.9-3.807-3.373-.69-5.716 1.701-7.22 4.406-1.553 2.793-2.641 6.605-3.413 10.339-.597 2.889-1.02 5.806-1.314 8.299a67.24 67.24 0 0 0-1.83-4.145c-1.287-2.653-2.864-5.375-4.672-7.395-1.762-1.969-4.063-3.616-6.765-3.288-2.511.306-4.834 2.193-6.793 4.368-1.746 1.939-3.402 4.336-4.868 6.739l.25-1.349c.654-3.718 1.082-7.645.821-10.903-.13-1.629-.439-3.178-1.037-4.475-.606-1.315-1.55-2.449-2.963-3.058-3.998-1.722-9.839-3.537-14.624-4.91l-1.322-.375c2.323-.48 4.885-1.203 7.166-2.299 3.144-1.51 6.074-3.89 6.705-7.606.625-3.68-1.109-8.092-5.786-13.409L29.028 67.546l1.458.533c3.483 1.247 8.159 2.749 12.867 3.741 4.66.981 9.556 1.508 13.385.642 1.939-.438 3.713-1.258 5.016-2.66 1.322-1.423 2.032-3.309 2.081-5.627.172-8.297-1.406-15.152-3.031-19.941a51.97 51.97 0 0 0-1.044-2.809z" stroke="#ffb000" stroke-width="3"/><path d="M65.15 47.231l4.054 2.214c3.546 1.834 8.627 4.221 14.772 6.434 1.624.585 3.094.607 4.407.163 1.305-.442 2.408-1.328 3.34-2.481 1.854-2.293 3.106-5.736 3.958-9.247.856-3.525 1.325-7.182 1.58-9.952l.106-1.274.472 1.635c.934 3.09 2.458 7.41 4.818 12.343.635 1.325 1.551 2.19 2.683 2.644 1.118.449 2.394.477 3.724.234 2.648-.484 5.669-2.071 8.487-3.926 2.83-1.863 5.506-4.031 7.472-5.73l.812-.712c-.634 1.195-1.366 2.684-2.021 4.305-.799 1.979-1.492 4.171-1.753 6.268-.26 2.091-.098 4.147.887 5.803 1.014 1.706 3.182 2.732 5.682 3.358 2.527.633 5.529.888 8.392.953a84.38 84.38 0 0 0 7.647-.204l.67-.052-1.519.772c-2.357 1.208-5.519 2.876-8.733 4.714s-6.489 3.85-9.07 5.748c-1.29.948-2.418 1.876-3.279 2.746-.851.858-1.49 1.706-1.731 2.498-.246.805-.15 1.746.142 2.73.294.991.802 2.077 1.446 3.201 1.287 2.251 3.152 4.722 5.054 7.007s3.859 4.405 5.336 5.948l.079.083-.338-.181a95.13 95.13 0 0 0-7.985-3.734c-3.09-1.262-6.458-2.401-9.583-2.958-3.106-.555-6.063-.552-8.264.572-2.278 1.164-3.371 3.837-3.815 6.963-.449 3.155-.261 6.935.18 10.552.441 3.623 1.139 7.111 1.726 9.69l.519 2.168-.328-.369c-1.1-1.22-2.653-2.86-4.46-4.54s-3.876-3.404-6.01-4.789c-2.127-1.38-4.354-2.446-6.472-2.763-2.338-.349-4.173 1.282-5.573 3.558-1.418 2.306-2.518 5.468-3.356 8.625-.84 3.166-1.425 6.364-1.8 8.769l-.24 1.627-.136-.436c-.537-1.651-1.326-3.846-2.331-6.011-1.002-2.158-2.236-4.318-3.671-5.876-1.428-1.549-3.15-2.596-5.103-2.276-1.875.308-3.798 1.775-5.591 3.666-1.812 1.911-3.569 4.341-5.102 6.719a87.54 87.54 0 0 0-2.305 3.796c.587-1.885 1.211-4.057 1.728-6.271.733-3.136 1.264-6.388 1.182-9.029-.041-1.32-.236-2.522-.66-3.491-.429-.978-1.105-1.743-2.102-2.115-3.381-1.262-8.383-2.534-12.519-3.487l-4.538-1 1.376-.239c2.495-.476 5.691-1.292 8.422-2.649 2.716-1.35 5.08-3.293 5.713-6.074.636-2.795-.518-6.236-4.346-10.469-6.78-7.499-9.739-11.018-10.943-12.613l.439.154c.869.298 2.111.708 3.604 1.157 2.984.897 6.981 1.953 11.018 2.581 4.023.626 8.145.836 11.348-.004 1.608-.422 3.014-1.115 4.054-2.182 1.047-1.074 1.692-2.493 1.826-4.301.51-6.892-.556-12.516-1.753-16.421-.598-1.952-1.229-3.475-1.712-4.514-.005-.01-.01-.02-.015-.03z" stroke="#000"/><path d="M164.545 30.599l-.953 6.928 7.729 3.767-1.527.263-6.923 1.194-.952 6.925-.21 1.52-.726-1.351-3.328-6.194-6.928 1.197-1.512.26 1.068-1.101 4.866-5.018-3.324-6.188-.733-1.364 7.729 3.767 4.869-5.02 1.063-1.095-.208 1.512zM24.87 118.579l-.92 5.584 5.978 2.913-1.404.308-5.296 1.158-.925 5.619-.258 1.562-.686-1.427-2.325-4.835-5.24 1.148-1.547.339 1.072-1.166 3.854-4.192-2.349-4.883-.624-1.296 5.978 2.913 3.832-4.165 1.134-1.234-.272 1.654zm109.862-7.13l-.92 5.584 5.978 2.914-1.404.307-5.296 1.159-.925 5.618-.258 1.563-.687-1.428-2.325-4.834-5.24 1.147-1.547.339 1.072-1.165 3.854-4.192-2.349-4.884-.624-1.296 5.978 2.914 3.832-4.165 1.133-1.234-.272 1.653z" stroke="#ffb000" fill="#ffe600"/><mask id="A" maskUnits="userSpaceOnUse" x="55.593" y="14.058" width="91.417" height="48.015" fill="#000"><path fill="#fff" d="M55.593 14.058h91.417v48.015H55.593z"/><path d="M68.08 57.737c-1.312.289-2.521-.089-3.625-1.135s-1.893-2.641-2.365-4.787a21.44 21.44 0 0 1-.461-5.96c.119-2.036.501-3.922 1.145-5.659s1.532-3.21 2.663-4.42c1.148-1.236 2.534-2.033 4.159-2.391 1.021-.225 1.983-.022 2.887.609s1.502 1.613 1.796 2.947l.083.375.048.219c.014.063.019.138.017.226l-3.853 1.996c-.365-.466-.714-.662-1.047-.589-.5.11-.942.634-1.325 1.57-.363.932-.67 2.015-.922 3.251l-.397 2.512-.105 2.35c.006.72.057 1.298.153 1.736.142.646.339 1.094.591 1.344.206.239.465.324.777.255s.624-.29.935-.665c.306-.395.565-.856.777-1.383.232-.532.35-1.038.353-1.52l3.879.653c-.507 2.558-1.347 4.546-2.52 5.962-1.157 1.391-2.371 2.226-3.642 2.506zm9.815-2.162l-.376-5.127-.248-4.992-.117-4.398-.096-4.304-.086-4.405 5.311-1.924-.069 7.421-.032 4.169.082 4.242.177 3.631 1.643-.427 1.587-.382.462 1.504.49 1.334.263.598-.25.055c-.062.014-.138.019-.226.017l-.5.11-2.691.724c-.965.278-1.919.608-2.862.991-.926.357-1.747.745-2.463 1.165zm11.035-2.529l.109-4.415-.053-5.002-.088-4.863-.114-4.235-.166-4.322 4.703-1.855.103 4.335.082 4.242.113 4.825.154 5.012.151 4.554c-.375.083-.837.217-1.386.404l-1.646.559-1.396.504-.566.256zm14.34-3.061c-1.313.289-2.521-.089-3.625-1.135s-1.893-2.641-2.365-4.787a21.45 21.45 0 0 1-.461-5.96c.119-2.036.501-3.922 1.145-5.659s1.532-3.21 2.663-4.421c1.148-1.236 2.534-2.033 4.159-2.391 1.021-.225 1.983-.022 2.887.609s1.502 1.613 1.796 2.947l.082.375.048.219c.014.063.02.138.017.226l-3.853 1.996c-.364-.466-.713-.662-1.047-.588-.5.11-.941.634-1.325 1.57-.363.932-.67 2.015-.922 3.251l-.397 2.512-.105 2.35c.006.72.057 1.298.153 1.736.142.646.339 1.094.591 1.344.206.239.465.324.777.255s.624-.29.935-.665a5.71 5.71 0 0 0 .776-1.383c.233-.532.351-1.038.354-1.52l3.879.653c-.507 2.558-1.347 4.546-2.52 5.962-1.157 1.391-2.372 2.226-3.642 2.506zm9.651-2.159l-.044-4.512-.078-4.373-.337-7.626-.629-7.168 1.646-.264.857-.123.858-.123.951-.144.938-.207.001 1.048.056 1.593.04 1.073.119 3.218.181-.073 1.377-3.711 1.441-4.02 3.063-.97 3.036-1.095-1.011 2.254-.979 2.247-1.081 2.532-1.108 2.702-.824 2.213 1.432 2.929 1.536 2.807 1.591 2.762 1.637 2.818-1.476.292-1.475.292-1.744.417-1.743.417-.735-2.001-.802-2.15-.787-2.087-.774-2.025-.418.78.041 2.416.021 1.437.033 1.336.056 1.593.032 1.631-4.898 1.865zm18.715-11.725l.122-4.057.098-4.019.066-4.012.153-4.064 3.147-1.185 2.331-.874-1.345 8.619-.988 8.606-1.799.462-1.785.524zm1.686 7.951c-.625.138-1.18.096-1.665-.125-.461-.204-.843-.502-1.148-.894-.288-.417-.483-.855-.584-1.313-.183-.833-.071-1.612.338-2.335.424-.749 1.126-1.231 2.106-1.447 1.208-.266 2.178-.174 2.911.276.728.43 1.173 1.009 1.333 1.738.184.833.005 1.659-.535 2.477-.546.797-1.464 1.338-2.756 1.623z"/></mask><path d="M68.08 57.737c-1.312.289-2.521-.089-3.625-1.135s-1.893-2.641-2.365-4.787a21.44 21.44 0 0 1-.461-5.96c.119-2.036.501-3.922 1.145-5.659s1.532-3.21 2.663-4.42c1.148-1.236 2.534-2.033 4.159-2.391 1.021-.225 1.983-.022 2.887.609s1.502 1.613 1.796 2.947l.083.375.048.219c.014.063.019.138.017.226l-3.853 1.996c-.365-.466-.714-.662-1.047-.589-.5.11-.942.634-1.325 1.57-.363.932-.67 2.015-.922 3.251l-.397 2.512-.105 2.35c.006.72.057 1.298.153 1.736.142.646.339 1.094.591 1.344.206.239.465.324.777.255s.624-.29.935-.665c.306-.395.565-.856.777-1.383.232-.532.35-1.038.353-1.52l3.879.653c-.507 2.558-1.347 4.546-2.52 5.962-1.157 1.391-2.371 2.226-3.642 2.506zm9.815-2.162l-.376-5.127-.248-4.992-.117-4.398-.096-4.304-.086-4.405 5.311-1.924-.069 7.421-.032 4.169.082 4.242.177 3.631 1.643-.427 1.587-.382.462 1.504.49 1.334.263.598-.25.055c-.062.014-.138.019-.226.017l-.5.11-2.691.724c-.965.278-1.919.608-2.862.991-.926.357-1.747.745-2.463 1.165zm11.035-2.529l.109-4.415-.053-5.002-.088-4.863-.114-4.235-.166-4.322 4.703-1.855.103 4.335.082 4.242.113 4.825.154 5.012.151 4.554c-.375.083-.837.217-1.386.404l-1.646.559-1.396.504-.566.256zm14.34-3.061c-1.313.289-2.521-.089-3.625-1.135s-1.893-2.641-2.365-4.787a21.45 21.45 0 0 1-.461-5.96c.119-2.036.501-3.922 1.145-5.659s1.532-3.21 2.663-4.421c1.148-1.236 2.534-2.033 4.159-2.391 1.021-.225 1.983-.022 2.887.609s1.502 1.613 1.796 2.947l.082.375.048.219c.014.063.02.138.017.226l-3.853 1.996c-.364-.466-.713-.662-1.047-.588-.5.11-.941.634-1.325 1.57-.363.932-.67 2.015-.922 3.251l-.397 2.512-.105 2.35c.006.72.057 1.298.153 1.736.142.646.339 1.094.591 1.344.206.239.465.324.777.255s.624-.29.935-.665a5.71 5.71 0 0 0 .776-1.383c.233-.532.351-1.038.354-1.52l3.879.653c-.507 2.558-1.347 4.546-2.52 5.962-1.157 1.391-2.372 2.226-3.642 2.506zm9.651-2.159l-.044-4.512-.078-4.373-.337-7.626-.629-7.168 1.646-.264.857-.123.858-.123.951-.144.938-.207.001 1.048.056 1.593.04 1.073.119 3.218.181-.073 1.377-3.711 1.441-4.02 3.063-.97 3.036-1.095-1.011 2.254-.979 2.247-1.081 2.532-1.108 2.702-.824 2.213 1.432 2.929 1.536 2.807 1.591 2.762 1.637 2.818-1.476.292-1.475.292-1.744.417-1.743.417-.735-2.001-.802-2.15-.787-2.087-.774-2.025-.418.78.041 2.416.021 1.437.033 1.336.056 1.593.032 1.631-4.898 1.865zm18.715-11.725l.122-4.057.098-4.019.066-4.012.153-4.064 3.147-1.185 2.331-.874-1.345 8.619-.988 8.606-1.799.462-1.785.524zm1.686 7.951c-.625.138-1.18.096-1.665-.125-.461-.204-.843-.502-1.148-.894-.288-.417-.483-.855-.584-1.313-.183-.833-.071-1.612.338-2.335.424-.749 1.126-1.231 2.106-1.447 1.208-.266 2.178-.174 2.911.276.728.43 1.173 1.009 1.333 1.738.184.833.005 1.659-.535 2.477-.546.797-1.464 1.338-2.756 1.623z" fill="#ffe600"/><path d="M64.455 56.602l1.375-1.452h0l-1.375 1.452zm-2.826-10.748l1.996.123v-.006l-1.996-.117zm1.145-5.659l1.875.696h0l-1.875-.696zm2.663-4.42l1.461 1.366.004-.005-1.465-1.361zm7.046-1.782l-1.145 1.64h0l1.145-1.64zm1.944 3.766l.92 1.776 1.046-.542.033-1.178-1.999-.056zm-3.853 1.996l-1.575 1.233 1.022 1.305 1.472-.763-.92-1.776zm-2.372.981l-1.851-.758-.007.016-.006.016 1.864.725zm-.922 3.251l-1.959-.4h0l1.959.4zm-.397 2.512l-1.987-.225-.003.024-.002.024 1.992.178zm-.105 2.35l-2 .016 2-.016zm.744 3.08l1.516-1.305-.05-.059-.055-.055-1.41 1.418zm1.712-.41l1.539 1.278.021-.026.021-.027-1.581-1.225zm.777-1.383l-1.833-.801-.012.028-.011.028 1.856.745zm.353-1.52l.332-1.972-2.316-.39-.016 2.349 2 .013zm3.879.653l1.962.389.4-2.019-2.03-.341-.332 1.972zm-2.52 5.962l1.537 1.279.003-.003-1.54-1.276zm-3.642 2.506l-.43-1.953c-.572.126-1.123.026-1.82-.634l-1.375 1.452-1.375 1.452c1.512 1.432 3.377 2.088 5.43 1.636l-.43-1.953zm-3.625-1.135l1.375-1.452c-.711-.673-1.364-1.844-1.787-3.765l-1.953.43-1.953.43c.522 2.371 1.446 4.391 2.943 5.809l1.375-1.452zm-2.365-4.787l1.953-.43a19.45 19.45 0 0 1-.418-5.407l-1.996-.123-1.996-.123a23.45 23.45 0 0 0 .504 6.513l1.953-.43zm-.461-5.96l1.996.117c.109-1.858.455-3.547 1.024-5.081l-1.875-.696-1.875-.695c-.72 1.94-1.137 4.023-1.267 6.237l1.997.117zm1.145-5.659l1.875.696c.563-1.517 1.319-2.755 2.249-3.75l-1.461-1.366-1.461-1.366c-1.333 1.426-2.352 3.135-3.077 5.091l1.875.695zm2.663-4.42l1.465 1.361c.875-.942 1.902-1.529 3.124-1.799l-.43-1.953-.43-1.953c-2.028.447-3.774 1.453-5.194 2.983l1.466 1.361zm4.159-2.391l.43 1.953c.442-.097.838-.035 1.311.296l1.145-1.64 1.145-1.64c-1.334-.932-2.863-1.275-4.462-.923l.43 1.953zm2.887.609l-1.145 1.64c.4.279.775.772.988 1.737l1.953-.43 1.953-.43c-.375-1.701-1.196-3.173-2.604-4.156l-1.145 1.64zm1.796 2.947l-1.953.43.083.375 1.953-.43 1.953-.43-.083-.375-1.953.43zm.083.375l-1.953.43.004.02.004.02.004.02.004.02.004.02.004.02.004.02.004.02.004.02.004.02.004.02 1.953-.43 1.953-.43-.004-.02-.004-.02-.004-.02-.004-.02-.004-.02-.004-.02-.004-.02-.004-.02-.004-.02-.004-.02-.004-.02-1.953.429zm.048.219l-1.953.43c-.017-.076-.024-.137-.027-.177l-.002-.084 1.999.056 1.999.056c.005-.195-.004-.443-.063-.712l-1.953.43zm.017.226l-.92-1.776-3.853 1.996.92 1.776.92 1.776 3.853-1.996-.92-1.776zm-3.853 1.996l1.575-1.233c-.473-.604-1.524-1.645-3.052-1.309l.43 1.953.43 1.953a1.36 1.36 0 0 1-.531.011c-.165-.03-.289-.085-.367-.128-.138-.078-.15-.13-.059-.014l1.575-1.233zm-1.047-.589l-.43-1.953c-1.558.343-2.338 1.77-2.746 2.765l1.851.758 1.851.758c.07-.172.134-.302.189-.398a1.13 1.13 0 0 1 .108-.164c.033-.039-.088.121-.392.188l-.43-1.953zm-1.325 1.57l-1.864-.725c-.413 1.06-.749 2.257-1.018 3.576l1.959.4 1.96.4c.235-1.151.514-2.122.826-2.925l-1.864-.725zm-.922 3.251l-1.959-.4-.425 2.687 1.987.225 1.987.225.369-2.337-1.96-.4zm-.397 2.512l-1.992-.178-.113 2.543 2-.016 2-.016c-.005-.645.026-1.363.097-2.156l-1.992-.178zm-.105 2.35l-2 .016c.006.786.061 1.52.2 2.15l1.953-.43 1.953-.43c-.054-.245-.101-.668-.106-1.321l-2 .016zm.153 1.736l-1.953.43c.164.745.463 1.665 1.134 2.332l1.41-1.418 1.41-1.418c.105.104.117.165.084.089-.031-.07-.08-.21-.132-.446l-1.953.43zm.591 1.344l-1.516 1.305c.303.352.714.666 1.241.838a2.8 2.8 0 0 0 1.482.065l-.43-1.953-.43-1.953c.132-.029.359-.047.625.041s.447.24.544.353l-1.516 1.305zm.777.255l.43 1.953c.921-.203 1.589-.793 2.043-1.34l-1.539-1.278-1.539-1.278c-.073.088-.105.107-.087.094s.109-.072.26-.105l.43 1.953zm.935-.665l1.581 1.225c.434-.56.78-1.187 1.052-1.864l-1.856-.745-1.856-.745c-.152.378-.323.673-.501.903l1.581 1.225zm.777-1.383l1.833.801c.319-.73.515-1.505.521-2.307l-2-.013-2-.013c-.001.16-.04.399-.186.732l1.833.801zm.353-1.52l-.332 1.972 3.879.653.332-1.972.332-1.972-3.879-.653-.332 1.972zm3.879.653l-1.962-.389c-.468 2.36-1.208 3.999-2.099 5.075l1.54 1.276 1.54 1.276c1.456-1.757 2.396-4.093 2.942-6.849l-1.962-.389zm-2.52 5.962l-1.537-1.279c-.982 1.18-1.839 1.679-2.535 1.832l.43 1.953.43 1.953c1.846-.407 3.417-1.579 4.749-3.18l-1.537-1.279zm6.173.344l-1.994.157.25 3.184 2.755-1.616-1.012-1.725zm-.376-5.127l-1.997.111.001.012v.012l1.995-.136zm-.248-4.992l-1.999.065v.011.011l1.998-.086zm-.117-4.398l2-.039-2 .039zm-.096-4.304l1.999-.05h0l-1.999.05zm-.086-4.405l-.681-1.88-1.338.485.02 1.423 2-.028zm5.311-1.924l2 .019.027-2.88-2.708.981.681 1.88zm-.069 7.421l2 .032v-.014l-2-.019zm-.032 4.169h-2v.011.011l2-.022zm.082 4.242l-1.999.057 1.999-.057zm.177 3.631l-1.994.15.187 2.494 2.392-.731-.585-1.913zm1.643-.427l.43 1.953.034-.007.033-.009-.497-1.937zm1.587-.382l1.933-.515-.493-1.85-1.87.412.43 1.953zm.462 1.504l-1.891.651.003.009 1.888-.66zm.49 1.334l-1.862.73.023.058.026.056 1.813-.844zm.263.598l.43 1.953 1.953-.43-.43-1.953-1.953.43zm-.476.072l.056-1.999-.246-.007-.24.053.43 1.953zm-3.191.834l.554 1.922.019-.005.019-.006-.591-1.911zm-2.862.991l.719 1.866.016-.006.016-.007-.752-1.853zm-2.463 1.165l1.994-.157-.374-5.106-1.995.136-1.995.136.377 5.148 1.994-.157zm-.376-5.127l1.997-.111-.247-4.966-1.998.086-1.998.086.249 5.017 1.997-.111zm-.248-4.992l1.999-.065-.116-4.372-2 .039-2 .039.118 4.424 1.999-.065zm-.117-4.398l2-.039-.097-4.316-1.999.05-1.999.05.096 4.293 2-.039zm-.096-4.304l1.999-.05-.085-4.382-2 .028-2 .028.086 4.427 1.999-.05zm-.086-4.405l.681 1.88 5.31-1.924-.681-1.88-.681-1.88-5.311 1.924.681 1.88zm5.311-1.924l-2-.019-.069 7.421 2 .019 2 .019.069-7.421-2-.019zm-.069 7.421l-2-.032-.032 4.2h2l2 .001.032-4.137-2-.032zm-.032 4.169l-2 .022.083 4.277 1.999-.057 1.999-.057-.082-4.206-2 .022zm.082 4.242l-1.999.057.182 3.723 1.994-.15 1.994-.15-.172-3.538-1.999.057zm.177 3.631l.585 1.913 1.488-.387-.43-1.953-.43-1.953-1.797.468.585 1.913zm1.643-.427l.497 1.937 1.52-.366-.43-1.953-.43-1.953-1.654.398.497 1.937zm1.587-.382l-1.933.515.504 1.64 1.891-.651 1.891-.651-.421-1.367-1.933.515zm.462 1.504l-1.888.66.516 1.404 1.862-.73 1.862-.73-.465-1.264-1.888.66zm.49 1.334l-1.813.844.173.378.02.045c.001 0-.003-.01-.008-.023l-.022-.065-.04-.151 1.953-.43 1.953-.43c-.044-.2-.118-.374-.119-.376l-.076-.179-.208-.456-1.813.844zm.263.598l-.43-1.953-.02.004-.02.004-.02.005-.02.004-.02.004-.02.004-.02.004-.02.004-.02.004-.02.004-.02.004-.02.004.419 1.956.43 1.953.02-.004.02-.004.02-.004.02-.004.02-.004.02-.004.02-.004.02-.004.02-.004.02-.005.02-.004.02-.004-.419-1.956zm-.25.055l-.43-1.953c.076-.017.137-.024.177-.027l.084-.002-.056 1.999-.056 1.999c.195.005.443-.004.712-.063l-.43-1.953zm-.226.017l-.43-1.953-.5.11.43 1.953.43 1.953.5-.11-.43-1.953zm-.5.11l-.43-1.953-2.852.766.591 1.911.591 1.911 2.531-.681-.43-1.953zm-2.691.724l-.554-1.922c-1.034.298-2.053.651-3.06 1.059l.752 1.853.752 1.853a26.87 26.87 0 0 1 2.664-.922l-.554-1.922zm-2.862.991l-.719-1.866c-1.008.389-1.93.822-2.756 1.306l1.012 1.725 1.012 1.725c.606-.355 1.326-.699 2.17-1.024l-.719-1.866zm8.572-1.364l-1.996-.127 3.681 1.204-1.685-1.077zm.109-4.415l-2-.012v.013.013l2-.013zm-.053-5.002l-2 .034v.01.01l1.999-.054zm-.088-4.863l-2 .033v.006l2-.039zm-.114-4.235l1.999-.074-1.999.074zm-.166-4.322l-.734-1.861-1.321.521.056 1.419 1.998-.079zm4.703-1.855l1.999-.05-.072-2.86-2.661 1.05.734 1.861zm.103 4.335l2-.039v-.006l-1.999.045zm.082 4.242l-2 .039h0l2-.039zm.113 4.825l1.999-.054-1.999.054zm.154 5.012l1.999-.065V46.7l-1.999.069zm.151 4.554l.43 1.953 1.626-.358-.057-1.664-1.999.069zm-1.386.404l.573 1.916.035-.011.035-.012-.643-1.894zm-1.646.559l.643 1.894.034-.012.034-.013-.712-1.869zm-1.396.504l-.73-1.862-.008.003-.008.003.746 1.856zm-.566.256l1.996.127.113-4.555-2 .013-2 .013-.105 4.274 1.996.127zm.109-4.415l2 .012-.054-5.067-1.999.054-1.999.054.053 4.936 2 .012zm-.053-5.002l2-.034-.088-4.868-2 .039-2 .039.088 4.858 2-.034zm-.088-4.863l2-.033-.115-4.276-1.999.074-1.999.074.113 4.194 2-.033zm-.114-4.235l1.999-.074-.166-4.327-1.998.079-1.998.079.165 4.316 1.999-.074zm-.166-4.322l.734 1.86 4.703-1.855-.734-1.86-.734-1.861-4.703 1.855.734 1.861zm4.703-1.855l-1.999.05.103 4.33 1.999-.045 1.999-.045-.103-4.341-1.999.05zm.103 4.335l-2 .039.082 4.242 2-.039 2-.039-.082-4.242-2 .039zm.082 4.242l-2 .039.113 4.84 1.999-.054 1.999-.054-.112-4.81-2 .039zm.113 4.825l-1.999.054.155 5.028 1.999-.069 1.999-.069-.153-4.997-1.999.054zm.154 5.012l-1.999.065.151 4.558 1.999-.069 1.999-.069-.151-4.55-1.999.065zm.151 4.554l-.43-1.953c-.473.104-1.011.264-1.599.463l.643 1.894.643 1.894 1.172-.344-.43-1.953zm-1.386.404l-.573-1.916-1.785.606.712 1.869.712 1.869 1.508-.512-.573-1.916zm-1.646.559l-.643-1.894-1.483.536.73 1.862.73 1.862 1.31-.473-.643-1.894zm-1.396.504l-.746-1.856-.49.206-.236.116-.205.124c-.005.004-.329.205-.575.589l1.685 1.077 1.685 1.077c-.08.126-.16.219-.216.28s-.111.112-.151.146a1.91 1.91 0 0 1-.179.138l-.144.088c-.036.019-.049.024-.018.01l.335-.14-.745-1.856zm10.148-3.94l1.375-1.452h0l-1.375 1.452zm-2.826-10.748l1.996.123v-.006l-1.997-.117zm1.145-5.659l1.875.695h0l-1.875-.695zm2.663-4.421l1.461 1.366.004-.005-1.465-1.361zm7.046-1.781l-1.146 1.64h0l1.146-1.64zm1.943 3.766l.92 1.776 1.046-.542.034-1.178-2-.056zm-3.853 1.996l-1.574 1.233 1.022 1.305 1.472-.763-.92-1.776zm-2.372.981l-1.851-.758-.006.016-.007.016 1.864.725zm-.922 3.251l-1.96-.4 1.96.4zm-.397 2.512l-1.987-.225-.003.024-.002.024 1.992.178zm-.105 2.35l-2 .016 2-.016zm.744 3.08l1.516-1.305-.051-.059-.055-.055-1.41 1.418zm1.712-.41l1.539 1.278.021-.026.021-.027-1.581-1.225zm.777-1.383l-1.833-.801-.012.028-.012.028 1.857.745zm.353-1.52l.332-1.972-2.317-.39-.015 2.349 2 .013zm3.879.653l1.962.389.4-2.019-2.03-.342-.332 1.972zm-2.52 5.962l1.537 1.279.003-.003-1.54-1.276zm-3.642 2.506l-.431-1.953c-.571.126-1.123.026-1.819-.634l-1.375 1.452-1.375 1.452c1.512 1.432 3.377 2.088 5.431 1.636l-.43-1.953zm-3.625-1.135l1.375-1.452c-.711-.673-1.364-1.844-1.788-3.765l-1.953.43-1.953.43c.522 2.371 1.446 4.391 2.943 5.809l1.375-1.452zm-2.365-4.787l1.953-.43c-.391-1.776-.531-3.576-.418-5.407l-1.996-.123-1.996-.123a23.45 23.45 0 0 0 .504 6.514l1.953-.43zm-.461-5.96l1.997.117c.109-1.858.455-3.547 1.024-5.081l-1.875-.695-1.875-.696c-.72 1.94-1.137 4.023-1.267 6.237l1.997.117zm1.145-5.659l1.875.695c.563-1.517 1.319-2.755 2.249-3.75l-1.461-1.366-1.461-1.366c-1.333 1.426-2.352 3.135-3.077 5.091l1.875.696zm2.663-4.421l1.465 1.361c.875-.942 1.902-1.529 3.124-1.799l-.43-1.953-.43-1.953c-2.028.447-3.774 1.453-5.195 2.983l1.466 1.361zm4.159-2.391l.43 1.953c.443-.098.838-.035 1.311.296l1.146-1.64 1.145-1.64c-1.334-.931-2.863-1.275-4.462-.923l.43 1.953zm2.887.609l-1.146 1.64c.4.279.776.772.988 1.737l1.954-.43 1.953-.43c-.375-1.701-1.197-3.173-2.604-4.156l-1.145 1.64zm1.796 2.947l-1.954.43.083.375 1.953-.43 1.953-.43-.082-.375-1.953.43zm.082.375l-1.953.43.004.02.005.019.004.02.004.02.005.02.004.02.005.02.004.02.004.02.005.02.004.02 1.953-.429 1.954-.43-.005-.019-.004-.02-.004-.02-.005-.02-.004-.02-.004-.02-.005-.019-.004-.02-.004-.02-.005-.019-.004-.02-1.954.428zm.048.219l-1.953.43c-.016-.076-.023-.137-.026-.177s-.003-.07-.003-.084l1.999.056 2 .056c.005-.195-.004-.443-.063-.712l-1.954.43zm.017.226l-.92-1.776-3.852 1.996.919 1.776.92 1.776 3.853-1.996-.92-1.776zm-3.853 1.996l1.575-1.233c-.473-.604-1.524-1.645-3.052-1.309l.43 1.953.431 1.953c-.179.039-.361.041-.532.011-.165-.03-.289-.085-.367-.128-.138-.078-.15-.13-.059-.014l1.574-1.233zm-1.047-.588l-.43-1.953c-1.558.343-2.338 1.77-2.746 2.765l1.851.758 1.851.758c.07-.172.134-.302.189-.399s.093-.147.107-.164c.033-.039-.088.121-.391.188l-.431-1.953zm-1.325 1.57l-1.864-.725c-.412 1.06-.749 2.257-1.018 3.576l1.96.4 1.959.4c.235-1.151.514-2.122.827-2.925l-1.864-.725zm-.922 3.251l-1.96-.4-.424 2.687 1.987.225 1.987.225.369-2.337-1.959-.4zm-.397 2.512l-1.992-.178-.113 2.543 2-.016 2-.016a22.38 22.38 0 0 1 .097-2.156l-1.992-.178zm-.105 2.35l-2 .016c.006.786.061 1.52.2 2.15l1.953-.43 1.953-.43c-.054-.245-.101-.668-.106-1.321l-2 .016zm.153 1.736l-1.953.43c.164.745.462 1.665 1.134 2.332l1.41-1.418 1.41-1.418c.105.104.118.165.084.089a2.58 2.58 0 0 1-.132-.446l-1.953.43zm.591 1.344l-1.516 1.305c.303.352.715.666 1.241.838a2.8 2.8 0 0 0 1.482.065l-.43-1.953-.43-1.953c.132-.029.359-.047.625.041s.446.24.544.353l-1.516 1.305zm.777.255l.43 1.953c.922-.203 1.589-.793 2.044-1.34l-1.539-1.278-1.539-1.278c-.073.088-.105.107-.087.095s.109-.072.261-.105l.43 1.953zm.935-.665l1.581 1.225c.434-.56.78-1.187 1.052-1.864l-1.856-.745-1.857-.745a3.72 3.72 0 0 1-.501.903l1.581 1.225zm.777-1.383l1.832.801c.319-.73.515-1.505.521-2.307l-2-.013-2-.013c-.001.16-.041.399-.186.732l1.833.801zm.353-1.52l-.332 1.972 3.879.653.332-1.972.332-1.972-3.879-.653-.332 1.972zm3.879.653l-1.962-.389c-.467 2.36-1.207 3.999-2.098 5.075l1.54 1.276 1.54 1.276c1.456-1.757 2.396-4.093 2.942-6.849l-1.962-.389zm-2.52 5.962l-1.538-1.279c-.982 1.18-1.839 1.679-2.535 1.832l.431 1.953.43 1.953c1.846-.407 3.417-1.579 4.749-3.18l-1.537-1.279zm6.009.347l-2 .011.017 2.884 2.695-1.027-.712-1.869zm-.044-4.512l2-.028-2 .028zm-.078-4.373l1.999-.045v-.02l-.001-.02-1.998.084zm-.337-7.626l1.998-.092v-.003l-1.998.095zm-.629-7.168l-.317-1.975-1.922.309.256 1.93 1.983-.263zm1.646-.264l-.29-1.979-.014.002-.013.002.317 1.975zm.857-.123l.28 1.98.01-.002-.29-1.979zm.858-.123l.279 1.98.01-.001.01-.002-.299-1.978zm.951-.144l.3 1.977.065-.01.065-.014-.43-1.953zm.938-.207l1.999.056.072-2.56-2.502.551.431 1.953zm.001 1.048l-2 .023.001.04.002.04 1.997-.103zm.056 1.593l-1.999.039v.032l.002.032 1.997-.103zm.04 1.073l-2-.004v.039l.001.039 1.999-.074zm.119 3.218l-1.999.074.106 2.842 2.639-1.06-.746-1.856zm.181-.073l.745 1.856.821-.33.308-.83-1.874-.696zm1.377-3.711l-1.875-.696 1.875.696zm1.441-4.02l-.584-1.913-.975.298-.332.963 1.891.651zm6.099-2.064l1.825.818 2.008-4.479-4.567 1.8.734 1.861zm-1.011 2.254l-1.825-.818h0l1.825.818zm-.979 2.247l1.837.791.005-.011-1.842-.779zm-1.081 2.532l-1.841-.78h0l1.841.781zm-1.108 2.702l-1.86-.737-.004.012 1.864.725zm-.824 2.213l-1.889-.657-.265.763.339.734 1.815-.84zm1.432 2.929l1.777-.917h0l-1.777.917zm1.536 2.807l1.73-1.004h0l-1.73 1.004zm1.591 2.762l1.736-.993-1.736.993zm1.637 2.818l.345 1.97 2.844-.498-1.466-2.487-1.723 1.015zm-1.476.292l.349 1.969.041-.007.041-.009-.431-1.953zm-3.219.709l.431 1.953.036-.008.036-.009-.503-1.936zm-1.743.417l-1.884.669.611 1.722 1.771-.454-.498-1.937zm-.735-2.001l-1.873.702.003.008 1.87-.71zm-.802-2.15l1.876-.695-.003-.007-1.873.702zm-.787-2.087l-1.873.702.003.008 1.87-.71zm-.774-2.025l1.863-.727-1.576-4.044-2.05 3.826 1.763.944zm-.418.78l-1.763-.944-.227.424-.009.481 1.999.04zm.041 2.416l1.998-.074v-.008l-1.998.082zm.021 1.437l-1.999-.013-.001.035.001.035 1.999-.057zm.033 1.336l-2 .039.001.032.001.032 1.998-.103zm.056 1.593l2-.023v-.008l-.001-.008-1.999.039zm.032 1.631l.711 1.869 1.326-.505-.038-1.418-1.999.054zm-4.898 1.865l2-.011-.044-4.528-2 .028-1.999.028.043 4.496 2-.011zm-.044-4.512l2-.028-.079-4.391-1.999.045-2 .045.079 4.356 1.999-.028zm-.078-4.373l1.998-.084-.337-7.634-1.998.092-1.998.092.336 7.618 1.999-.084zm-.337-7.626l1.998-.095-.644-7.337-1.983.264-1.983.263.614 7 1.998-.095zm-.629-7.168l.317 1.975 1.646-.264-.317-1.975-.317-1.975-1.646.264.317 1.975zm1.646-.264l.29 1.979.846-.122-.279-1.98-.279-1.98-.868.125.29 1.979zm.857-.123l.29 1.979.847-.122-.279-1.98-.279-1.98-.869.125.29 1.979zm.858-.123l.299 1.978.952-.144-.3-1.977-.299-1.977-.952.144.3 1.977zm.951-.144l.43 1.953.021-.004.02-.004.02-.005.02-.004.02-.004.02-.004.02-.004.021-.005.02-.004.02-.004.02-.005.02-.004.02-.005.02-.004.021-.004.02-.005.02-.004.02-.004.02-.005.02-.004.02-.005.021-.004.02-.004.02-.005.02-.004.02-.004.02-.005.02-.004.021-.004.02-.005.02-.004.02-.005.02-.004.02-.004.02-.005.021-.004.02-.004.02-.005.02-.004.02-.005.02-.004.02-.004.021-.005.02-.004.02-.004.02-.005-.419-1.956-.431-1.953-.02.004-.02.004-.02.005-.02.004-.02.005-.02.004-.021.004-.02.005-.02.004-.02.004-.02.005-.02.004-.02.004-.021.005-.02.004-.02.005-.02.004-.02.004-.02.005-.02.004-.021.004-.02.005-.02.004-.02.005-.02.004-.02.004-.02.005-.021.004-.02.004-.02.005-.02.004-.02.005-.02.004-.02.004-.021.005-.02.004-.02.004-.02.005-.02.004-.02.005-.02.004-.021.004-.02.005-.02.004-.02.004-.02.005.419 1.956zm.938-.207l-2-.056.001 1.127 2-.023 2-.023-.002-.969-1.999-.056zm.001 1.048l-1.997.103.054 1.529 1.999-.039 2-.039-.058-1.658-1.998.103zm.056 1.593l-1.997.103.037.966 2 .004 2 .004-.042-1.18-1.998.103zm.04 1.073l-1.999.074.119 3.218 1.999-.074 1.999-.074-.119-3.218-1.999.074zm.119 3.218l.746 1.856.18-.073-.745-1.856-.746-1.856-.181.072.746 1.856zm.181-.073l1.874.696 1.378-3.712-1.875-.696-1.875-.696-1.377 3.711 1.875.696zm1.377-3.711l1.875.696 1.457-4.065-1.891-.651-1.891-.651-1.425 3.976 1.875.696zm1.441-4.02l.585 1.913 3.101-.982-.623-1.901-.622-1.901-3.025.958.584 1.913zm3.063-.97l.623 1.901 3.146-1.135-.733-1.861-.734-1.861-2.924 1.055.622 1.901zm3.036-1.095l-1.825-.818-1.011 2.254 1.825.818 1.825.818 1.011-2.254-1.825-.818zm-1.011 2.254l-1.825-.818-.996 2.286 1.842.779 1.842.779.962-2.209-1.825-.818zm-.979 2.247l-1.837-.791-1.085 2.542 1.841.781 1.842.781 1.076-2.522-1.837-.791zm-1.081 2.532l-1.841-.78-1.127 2.745 1.86.737 1.859.737 1.091-2.658-1.842-.781zm-1.108 2.702l-1.864-.725-.849 2.281 1.889.657 1.889.657.798-2.145-1.863-.725zm-.824 2.213l-1.815.84 1.469 3.005 1.778-.917 1.777-.917-1.394-2.852-1.815.84zm1.432 2.929l-1.778.917 1.584 2.894 1.73-1.004 1.73-1.004-1.489-2.72-1.777.917zm1.536 2.807l-1.73 1.004 1.585 2.752 1.736-.993 1.736-.993-1.597-2.773-1.73 1.004zm1.591 2.762l-1.736.993 1.65 2.84 1.723-1.015 1.723-1.015-1.624-2.796-1.736.993zm1.637 2.818l-.345-1.97-1.561.309.43 1.953.431 1.953 1.39-.276-.345-1.97zm-1.476.292l-.348-1.969-1.558.309.431 1.953.43 1.953 1.394-.276-.349-1.969zm-1.475.292l-.431-1.953-1.815.434.502 1.936.503 1.936 1.671-.4-.43-1.953zm-1.744.417l-.43-1.953-1.81.433.497 1.937.498 1.937 1.676-.401-.431-1.953zm-1.743.417l1.885-.669-.751-2.041-1.869.71-1.87.71.721 1.96 1.884-.669zm-.735-2.001l1.872-.702-.798-2.143-1.876.695-1.875.695.804 2.157 1.873-.702zm-.802-2.15l1.873-.702-.79-2.095-1.87.71-1.87.71.785 2.08 1.872-.702zm-.787-2.087l1.873-.702-.784-2.049-1.863.727-1.863.727.764 2 1.873-.702zm-.774-2.025l-1.763-.944-.418.78 1.763.944 1.763.944.418-.78-1.763-.944zm-.418.78l-1.999-.04.041 2.538 1.999-.082 1.998-.082-.039-2.294-2-.04zm.041 2.416l-1.999.074.021 1.35 1.999.013 2 .013-.023-1.524-1.998.074zm.021 1.437l-1.999.057.032 1.318 2-.039 1.999-.039-.032-1.355-2 .057zm.033 1.336l-1.998.103.054 1.529 2-.039 1.999-.039-.058-1.658-1.997.103zm.056 1.593l-2 .023.032 1.662 2-.054 1.999-.054-.031-1.6-2 .023zm.032 1.631l-.712-1.869-4.898 1.865.712 1.869.712 1.869 4.897-1.865-.711-1.869zm13.817-9.86l-1.999-.071-.099 2.772 2.662-.782-.564-1.919zm.122-4.057l2 .048-2-.048zm.098-4.019l1.999.049.001-.015v-.015l-2-.018zm.066-4.012l-1.999-.071v.011.011l1.999.049zm.153-4.064l-.729-1.862-1.217.477-.052 1.306 1.998.079zm3.147-1.185l-.674-1.883h0l.674 1.883zm2.331-.874l1.964.374.684-3.593-3.394 1.363.746 1.856zm-1.345 8.619l-1.986-.242-.001.009 1.987.233zm-.988 8.606l.43 1.953 1.398-.308.159-1.422-1.987-.223zm-1.799.462l.564 1.919-.564-1.919zm-1.764 8.351l.827-1.821-.008-.004-.007-.003-.812 1.828zm-1.148-.894l-1.645 1.138.032.046.035.044 1.578-1.228zm-.246-3.648l-1.74-.987-.002.003 1.742.983zm5.017-1.171l-1.047 1.704.016.01.015.009 1.016-1.723zm.798 4.215l1.651 1.129.009-.013.008-.013-1.668-1.103zm-4.442-6.329l1.999.071.123-4.08-2-.048-1.999-.049-.122 4.034 1.999.071zm.122-4.057l2 .048.097-4.019-1.999-.049-2-.049-.097 4.019 1.999.049zm.098-4.019l2 .018.066-3.981-2-.049-1.999-.049-.067 4.043 2 .018zm.066-4.012l1.999.071.153-4.056-1.999-.079-1.998-.079-.154 4.072 1.999.071zm.153-4.064l.73 1.862 3.091-1.164-.674-1.883-.674-1.883-3.202 1.206.729 1.862zm3.147-1.185l.674 1.883 2.402-.901-.745-1.856-.746-1.856-2.259.847.674 1.883zm2.331-.874l-1.965-.374-1.366 8.751 1.986.242 1.985.242 1.324-8.487-1.964-.374zm-1.345 8.619l-1.987-.233-.989 8.616 1.988.223 1.987.223.987-8.596-1.986-.233zm-.988 8.606l-.43-1.953-1.932.496.563 1.919.564 1.919 1.665-.428-.43-1.953zm-1.799.462l-.563-1.919-1.785.524.563 1.919.564 1.919 1.785-.524-.564-1.919zm-.099 8.476l-.43-1.953c-.289.064-.39.016-.408.008l-.827 1.821-.828 1.821c.953.434 1.963.469 2.924.257l-.431-1.953zm-1.665-.125l.812-1.828c-.164-.073-.282-.167-.381-.295l-1.579 1.228-1.578 1.228c.51.655 1.157 1.158 1.913 1.494l.813-1.828zm-1.148-.894l1.645-1.138a1.7 1.7 0 0 1-.276-.605l-1.953.43-1.953.43c.161.732.468 1.407.892 2.021l1.645-1.138zm-.584-1.313l1.953-.43c-.08-.366-.033-.64.126-.922l-1.741-.983-1.742-.983a5.19 5.19 0 0 0-.549 3.749l1.953-.43zm.338-2.335l1.739.987c.098-.173.271-.365.797-.481l-.43-1.953-.431-1.953c-1.432.316-2.664 1.089-3.415 2.413l1.74.987zm2.106-1.447l.43 1.953c.924-.203 1.305-.053 1.434.027l1.047-1.704 1.047-1.704c-1.336-.821-2.896-.854-4.389-.525l.431 1.953zm2.911.276l-1.016 1.723c.32.188.371.333.396.445l1.953-.43 1.953-.43c-.296-1.346-1.133-2.36-2.27-3.03l-1.016 1.723zm1.333 1.738l-1.953.43c.05.225.04.504-.251.944l1.669 1.103 1.668 1.103c.791-1.196 1.138-2.568.82-4.01l-1.953.43zm-.535 2.477l-1.651-1.129c-.166.243-.554.582-1.535.799l.43 1.953.431 1.953c1.602-.353 3.051-1.095 3.976-2.447l-1.651-1.129z" fill="#000" mask="url(#A)"/></svg>