<svg width="279" height="84" viewBox="0 0 279 84" fill="none" xmlns="http://www.w3.org/2000/svg">
<mask id="path-1-inside-1_699_82" fill="white">
<path d="M134.458 17.4327L143.822 45.2537L278.28 -9.07382e-06L156.787 83.7759L147.423 55.9549L6.32391e-06 62.6864L134.458 17.4327Z"/>
</mask>
<path d="M134.458 17.4327L143.822 45.2537L278.28 -9.07382e-06L156.787 83.7759L147.423 55.9549L6.32391e-06 62.6864L134.458 17.4327Z" fill="white"/>
<path d="M134.458 17.4327L139.197 15.8378L137.602 11.099L132.863 12.6939L134.458 17.4327ZM143.822 45.2537L139.083 46.8486L140.678 51.5874L145.416 49.9925L143.822 45.2537ZM278.28 -9.07382e-06L281.118 4.11625L276.685 -4.73881L278.28 -9.07382e-06ZM156.787 83.7759L152.048 85.3708L154.164 91.658L159.625 87.8922L156.787 83.7759ZM147.423 55.9549L152.162 54.36L150.96 50.7882L147.195 50.9601L147.423 55.9549ZM6.32391e-06 62.6864L-1.5949 57.9476L0.228066 67.6812L6.32391e-06 62.6864ZM134.458 17.4327L129.719 19.0276L139.083 46.8486L143.822 45.2537L148.56 43.6588L139.197 15.8378L134.458 17.4327ZM143.822 45.2537L145.416 49.9925L279.874 4.73879L278.28 -9.07382e-06L276.685 -4.73881L142.227 40.5149L143.822 45.2537ZM278.28 -9.07382e-06L275.441 -4.11627L153.948 79.6597L156.787 83.7759L159.625 87.8922L281.118 4.11625L278.28 -9.07382e-06ZM156.787 83.7759L161.526 82.181L152.162 54.36L147.423 55.9549L142.684 57.5498L152.048 85.3708L156.787 83.7759ZM147.423 55.9549L147.195 50.9601L-0.228053 57.6916L6.32391e-06 62.6864L0.228066 67.6812L147.651 60.9497L147.423 55.9549ZM6.32391e-06 62.6864L1.59492 67.4252L136.053 22.1715L134.458 17.4327L132.863 12.6939L-1.5949 57.9476L6.32391e-06 62.6864Z" fill="black" mask="url(#path-1-inside-1_699_82)"/>
</svg>
