<svg width="60" height="57" viewBox="0 0 60 57" fill="none" xmlns="http://www.w3.org/2000/svg">
<path d="M4.05943e-07 28.5013C4.05943e-07 44.2163 13.4565 57 29.9986 57C46.5407 57 60 44.2163 60 28.5013C60 12.7863 46.5407 0 29.9986 0C13.4565 0 4.05943e-07 12.7863 4.05943e-07 28.5013ZM55.8932 28.5013C55.8932 42.0627 44.2765 53.0986 29.9986 53.0986C15.7235 53.0986 4.10678 42.0627 4.10678 28.5013C4.10678 14.9373 15.7235 3.90144 30.0014 3.90144C44.2765 3.90144 55.8932 14.9373 55.8932 28.5013Z" fill="#9CA802"/>
<path d="M15.6277 41.9225L43.3936 15.4175" stroke="#9CA802" stroke-width="2" stroke-linecap="round" stroke-linejoin="round"/>
<path d="M43.3936 41.9225L15.6277 15.4175" stroke="#9CA802" stroke-width="2" stroke-linecap="round" stroke-linejoin="round"/>
</svg>
